<?xml version="1.0" encoding="UTF-8"?>
<svg xmlns="http://www.w3.org/2000/svg" xmlns:xlink="http://www.w3.org/1999/xlink" width="250px" height="70px" viewBox="0 0 250 70" version="1.1">
  <title>F337A242-DBA0-44E0-B251-58D4C76E830C</title>
  <defs>
    <polygon id="path-1" points="0 0 250 0 250 69.6505714 0 69.6505714"></polygon>
  </defs>
  <g id="OneTouch-Desktop" stroke="none" stroke-width="1" fill="none" fill-rule="evenodd">
    <g transform="translate(-160.000000, -37.000000)" id="Group-6">
      <g id="OT-Master-Logo" transform="translate(160.000000, 37.000000)">
        <path d="M80.0127364,36.3282011 C80.0127364,29.9468896 76.8469769,26.1875502 71.4549652,26.1875502 C66.1127461,26.1875502 62.9469866,29.9468896 62.9469866,36.3282011 C62.9469866,42.6597201 66.1127461,46.4190595 71.4549652,46.4190595 C76.8469769,46.4190595 80.0127364,42.6597201 80.0127364,36.3282011 Z M59.8801571,36.3282011 C59.8801571,28.3640098 64.183939,23.6153706 71.5047578,23.6153706 C78.7764392,23.6153706 83.0795659,28.3640098 83.0795659,36.3282011 C83.0795659,44.2917372 78.7764392,48.991239 71.5047578,48.991239 C64.183939,48.991239 59.8801571,44.2917372 59.8801571,36.3282011 L59.8801571,36.3282011 Z" id="Fill-1" fill="#3F285C"></path>
        <path d="M108.406297,32.3710018 L108.406297,48.4965891 L105.38926,48.4965891 L105.38926,33.1126491 C105.38926,28.7597298 103.261938,26.1875502 99.7495958,26.1875502 C94.7041666,26.1875502 90.8956898,29.1063123 90.8956898,34.2008789 L90.8956898,48.4965891 L87.8779977,48.4965891 L87.8779977,24.0110906 C88.3235102,23.7640932 88.7683676,23.6153706 89.2138801,23.6153706 C90.1533873,23.6153706 90.8458972,24.3576731 90.8458972,25.9896902 L90.8458972,28.4629398 C92.6764295,25.5448329 95.9902564,23.6153706 100.442106,23.6153706 C105.438397,23.6153706 108.406297,26.8800601 108.406297,32.3710018" id="Fill-2" fill="#3F285C"></path>
        <path d="M115.975423,36.1303412 C118.151883,36.5260611 120.427273,36.7730585 122.504802,36.7730585 C127.153856,36.7730585 129.875414,34.7944588 129.875414,31.4308393 C129.875414,28.1163573 127.748092,26.1875502 124.13682,26.1875502 C119.240113,26.1875502 116.272213,29.8479596 115.975423,36.1303412 Z M131.606361,44.3906672 L132.843313,46.4681969 C130.023481,48.2489366 126.906859,48.991239 123.296242,48.991239 C116.766863,48.991239 112.908594,44.5885272 112.908594,37.1687784 C112.908594,28.6607998 117.212376,23.6153706 124.532539,23.6153706 C129.775829,23.6153706 132.892451,26.5334776 132.892451,31.3817019 C132.892451,36.1794786 129.083974,39.0484481 122.504802,39.0484481 C120.328343,39.0484481 118.102091,38.7516581 115.975423,38.3068008 C116.321351,43.45116 118.943323,46.4681969 123.395172,46.4681969 C126.659862,46.4681969 129.380764,45.775687 131.606361,44.3906672 L131.606361,44.3906672 Z" id="Fill-3" fill="#3F285C"></path>
        <path d="M141.697219,26.5334776 L141.697219,40.4826053 C141.697219,44.1934624 143.280099,46.4190595 146.346928,46.4190595 C147.682156,46.4190595 148.869971,46.1714069 150.007338,45.6276196 L150.45285,48.0510766 C149.067831,48.6944491 147.385366,48.991239 145.456559,48.991239 C141.202569,48.991239 138.679527,46.1222695 138.679527,41.2249077 L138.679527,26.5334776 L134.624053,26.5334776 L134.624053,24.1100205 L138.72932,24.1100205 L138.72932,17.827639 C139.174832,17.5806416 139.61969,17.4325742 140.064547,17.4325742 C141.004709,17.4325742 141.697219,18.1244289 141.697219,19.7073087 L141.697219,24.1100205 L150.501988,24.1100205 L150.501988,26.5334776 L141.697219,26.5334776" id="Fill-4" fill="#3F285C"></path>
        <path d="M172.218757,36.3282011 C172.218757,29.9468896 169.052998,26.1875502 163.660986,26.1875502 C158.318767,26.1875502 155.153007,29.9468896 155.153007,36.3282011 C155.153007,42.6597201 158.318767,46.4190595 163.660986,46.4190595 C169.052998,46.4190595 172.218757,42.6597201 172.218757,36.3282011 Z M152.086178,36.3282011 C152.086178,28.3640098 156.389305,23.6153706 163.710123,23.6153706 C170.981805,23.6153706 175.284931,28.3640098 175.284931,36.3282011 C175.284931,44.2917372 170.981805,48.991239 163.710123,48.991239 C156.389305,48.991239 152.086178,44.2917372 152.086178,36.3282011 L152.086178,36.3282011 Z" id="Fill-5" fill="#3F285C"></path>
        <path d="M199.819567,25.8907603 L199.819567,48.5955191 C199.37471,48.8923091 198.929853,48.991239 198.48434,48.991239 C197.544833,48.991239 196.852323,48.2489366 196.852323,46.6169194 L196.852323,44.2425998 C195.121376,47.1115694 191.955616,48.991239 187.750765,48.991239 C182.755128,48.991239 179.786573,45.7265496 179.786573,40.2362631 L179.786573,24.0110906 C180.232086,23.7640932 180.676943,23.6153706 181.1218,23.6153706 C182.1111,23.6153706 182.804265,24.3078805 182.804265,25.8907603 L182.804265,39.4939606 C182.804265,43.8468799 184.930932,46.4190595 188.442619,46.4190595 C193.191259,46.4190595 196.802531,43.5500899 196.802531,38.4057308 L196.802531,24.0110906 C197.248043,23.7640932 197.6929,23.6153706 198.138413,23.6153706 C199.127713,23.6153706 199.819567,24.3078805 199.819567,25.8907603" id="Fill-6" fill="#3F285C"></path>
        <path d="M215.699468,48.991239 C208.724576,48.991239 204.61931,44.2917372 204.61931,36.2784085 C204.61931,28.3148724 208.823506,23.6153706 215.65033,23.6153706 C218.716505,23.6153706 221.981849,25.0003904 223.564729,28.5618698 L221.090824,29.5511697 C219.854527,27.3249174 218.122925,26.1875502 215.699468,26.1875502 C210.703176,26.1875502 207.685484,29.8977522 207.685484,36.2784085 C207.685484,42.6597201 210.703176,46.4190595 215.798398,46.4190595 C218.568437,46.4190595 221.288684,45.5286896 223.267939,43.7970873 L224.405306,46.2703369 C222.080124,48.100214 219.310085,48.991239 215.699468,48.991239" id="Fill-7" fill="#3F285C"></path>
        <path d="M248.89015,32.3710018 L248.89015,48.4965891 L245.872458,48.4965891 L245.872458,33.1126491 C245.872458,28.7597298 243.745791,26.1875502 240.234104,26.1875502 C235.188675,26.1875502 231.379543,29.1063123 231.379543,34.2008789 L231.379543,48.4965891 L228.362506,48.4965891 L228.362506,10.3096154 C228.807363,10.0128254 229.25222,9.91324029 229.697733,9.91324029 C230.687033,9.91324029 231.379543,10.6057502 231.379543,12.1394925 L231.379543,28.3640098 C233.20942,25.4950403 236.523902,23.6153706 240.926614,23.6153706 C245.922905,23.6153706 248.89015,26.8800601 248.89015,32.3710018" id="Fill-8" fill="#3F285C"></path>
        <path d="M35.1876263,38.2766632 C36.7141618,39.8031987 36.7141618,42.279069 35.1876263,43.8062596 C33.6604356,45.3327951 31.1845654,45.3327951 29.6580298,43.8062596 C28.1314943,42.279069 28.1314943,39.8031987 29.6580298,38.2766632 C31.1845654,36.7494725 33.6604356,36.7494725 35.1876263,38.2766632" id="Fill-9" fill="#4EB1BB"></path>
        <g id="Group-22">
          <mask id="mask-2" fill="white">
            <use xlink:href="#path-1"></use>
          </mask>
          <g id="Clip-11"></g>
          <path d="M153.514439,60.3373944 L150.465299,69.502504 L149.211967,69.502504 L147.099058,63.1061236 L146.668615,61.7407588 L146.275515,63.1061236 L144.237296,69.502504 L142.964964,69.502504 L139.898135,60.3373944 C140.046857,60.2070165 140.289924,60.094328 140.514646,60.094328 C140.814056,60.094328 141.131811,60.2443609 141.300189,60.7678381 L143.208031,66.8471184 L143.657474,68.3992053 L144.125262,66.7907741 L146.181827,60.3373944 C146.313515,60.2070165 146.556581,60.094328 146.762303,60.094328 C147.042714,60.094328 147.342125,60.2443609 147.510502,60.7678381 L149.362,66.6970855 L149.866477,68.3802055 L150.372265,66.6407413 L152.466829,60.094328 L153.514439,60.3373944" id="Fill-10" fill="#4EB1BB" mask="url(#mask-2)"></path>
          <path d="M156.004067,64.8265881 C156.8263,64.9759658 157.687187,65.0696545 158.472731,65.0696545 C160.231195,65.0696545 161.259805,64.3214555 161.259805,63.0497794 C161.259805,61.7964479 160.455261,61.0665936 159.089897,61.0665936 C157.237744,61.0665936 156.115445,62.4516133 156.004067,64.8265881 Z M161.914315,67.950417 L162.382103,68.7353052 C161.316149,69.4094705 160.137506,69.6898813 158.772141,69.6898813 C156.303478,69.6898813 154.843769,68.0251059 154.843769,65.2190322 C154.843769,62.0021698 156.4712,60.094328 159.239274,60.094328 C161.221805,60.094328 162.400448,61.1982818 162.400448,63.0307796 C162.400448,64.8455879 160.960394,65.9298867 158.472731,65.9298867 C157.649843,65.9298867 156.807955,65.8178534 156.004067,65.6501311 C156.1351,67.5946622 157.125711,68.7353052 158.809486,68.7353052 C160.044473,68.7353052 161.072427,68.4738942 161.914315,67.950417 L161.914315,67.950417 Z" id="Fill-12" fill="#4EB1BB" mask="url(#mask-2)"></path>
          <path d="M173.211988,69.6898813 C170.574947,69.6898813 169.02286,67.9130726 169.02286,64.8829323 C169.02286,61.8711367 170.612291,60.094328 173.193643,60.094328 C174.352631,60.094328 175.587618,60.6184604 176.185784,61.9654806 L175.250863,62.3389249 C174.78373,61.4976924 174.12922,61.0665936 173.211988,61.0665936 C171.322491,61.0665936 170.181848,62.469958 170.181848,64.8829323 C170.181848,67.2952515 171.322491,68.7169606 173.249988,68.7169606 C174.296942,68.7169606 175.326207,68.3802055 176.073751,67.7256952 L176.504194,68.6606163 C175.624962,69.3531262 174.577353,69.6898813 173.211988,69.6898813" id="Fill-13" fill="#4EB1BB" mask="url(#mask-2)"></path>
          <path d="M184.042528,65.6868203 L184.042528,65.0886543 C183.23864,65.0139654 182.396752,64.9759658 181.666898,64.9759658 C179.965433,64.9759658 178.973513,65.6684757 178.973513,66.865463 C178.973513,68.0441057 179.684367,68.7549602 180.900355,68.7549602 C182.303064,68.7549602 184.042528,67.6326618 184.042528,65.6868203 Z M185.183826,63.4055342 L185.183826,69.5398484 C185.033793,69.6525368 184.847071,69.6898813 184.678694,69.6898813 C184.323594,69.6898813 184.061528,69.4094705 184.061528,68.7916494 L184.061528,67.744695 C183.350673,68.9233377 182.003653,69.6898813 180.657288,69.6898813 C178.880479,69.6898813 177.83287,68.6606163 177.83287,66.9218072 C177.83287,65.1443434 179.254579,64.0967338 181.648554,64.0967338 C182.434097,64.0967338 183.256985,64.153078 184.042528,64.228422 L184.042528,63.6852899 C184.042528,62.0205145 183.220295,61.0482489 181.704898,61.0482489 C180.657288,61.0482489 179.759056,61.3096599 179.011513,61.8527921 L178.543724,61.0665936 C179.51599,60.3937386 180.619944,60.094328 181.873275,60.094328 C183.949495,60.094328 185.183826,61.3293149 185.183826,63.4055342 L185.183826,63.4055342 Z" id="Fill-14" fill="#4EB1BB" mask="url(#mask-2)"></path>
          <path d="M193.844458,60.375394 L193.489359,61.5160371 C193.171604,61.3096599 192.76016,61.179282 192.311371,61.179282 C190.571252,61.179282 189.281231,62.5073024 189.281231,64.8455879 L189.281231,69.502504 L188.139933,69.502504 L188.139933,60.2443609 C188.30831,60.1506722 188.476688,60.094328 188.645065,60.094328 C189.00082,60.094328 189.262231,60.375394 189.262231,60.9919047 L189.262231,62.2832358 C189.898397,60.9545603 191.05804,60.094328 192.591782,60.094328 C193.096915,60.094328 193.508359,60.2070165 193.844458,60.375394" id="Fill-15" fill="#4EB1BB" mask="url(#mask-2)"></path>
          <path d="M195.8093,64.8265881 C196.632187,64.9759658 197.493075,65.0696545 198.278618,65.0696545 C200.037082,65.0696545 201.065692,64.3214555 201.065692,63.0497794 C201.065692,61.7964479 200.261149,61.0665936 198.895784,61.0665936 C197.043631,61.0665936 195.921333,62.4516133 195.8093,64.8265881 Z M201.720202,67.950417 L202.187991,68.7353052 C201.122036,69.4094705 199.943394,69.6898813 198.578029,69.6898813 C196.10871,69.6898813 194.649657,68.0251059 194.649657,65.2190322 C194.649657,62.0021698 196.277088,60.094328 199.045817,60.094328 C201.027693,60.094328 202.206335,61.1982818 202.206335,63.0307796 C202.206335,64.8455879 200.766282,65.9298867 198.278618,65.9298867 C197.45573,65.9298867 196.613843,65.8178534 195.8093,65.6501311 C195.940988,67.5946622 196.931598,68.7353052 198.615373,68.7353052 C199.849705,68.7353052 200.878315,68.4738942 201.720202,67.950417 L201.720202,67.950417 Z" id="Fill-16" fill="#4EB1BB" mask="url(#mask-2)"></path>
          <path d="M222.239984,63.4055342 L222.239984,69.502504 L221.098686,69.502504 L221.098686,63.6852899 C221.098686,62.0395143 220.444176,61.0665936 219.321878,61.0665936 C217.638757,61.0665936 216.366426,62.1705473 216.366426,64.0967338 L216.366426,69.502504 L215.225783,69.502504 L215.225783,63.6852899 C215.225783,62.0395143 214.571273,61.0665936 213.467974,61.0665936 C211.765199,61.0665936 210.493523,62.1705473 210.493523,64.0967338 L210.493523,69.502504 L209.352225,69.502504 L209.352225,60.2443609 C209.520602,60.1506722 209.68898,60.094328 209.858013,60.094328 C210.213112,60.094328 210.474523,60.375394 210.474523,60.9919047 L210.474523,61.8711367 C211.092344,60.7868379 212.232987,60.094328 213.729385,60.094328 C214.944717,60.094328 215.805605,60.7678381 216.179704,61.9654806 C216.871559,60.8615268 217.938168,60.094328 219.583289,60.094328 C221.248064,60.094328 222.239984,61.3293149 222.239984,63.4055342" id="Fill-17" fill="#4EB1BB" mask="url(#mask-2)"></path>
          <path d="M232.266637,64.901277 C232.266637,62.4883026 231.069649,61.0665936 229.030119,61.0665936 C227.010244,61.0665936 225.813257,62.4883026 225.813257,64.901277 C225.813257,67.2952515 227.010244,68.7169606 229.030119,68.7169606 C231.069649,68.7169606 232.266637,67.2952515 232.266637,64.901277 Z M224.653614,64.901277 C224.653614,61.8901365 226.281045,60.094328 229.049119,60.094328 C231.798848,60.094328 233.425624,61.8901365 233.425624,64.901277 C233.425624,67.9130726 231.798848,69.6898813 229.049119,69.6898813 C226.281045,69.6898813 224.653614,67.9130726 224.653614,64.901277 L224.653614,64.901277 Z" id="Fill-18" fill="#4EB1BB" mask="url(#mask-2)"></path>
          <path d="M241.638123,60.375394 L241.283024,61.5160371 C240.964613,61.3096599 240.553169,61.179282 240.104381,61.179282 C238.364262,61.179282 237.074241,62.5073024 237.074241,64.8455879 L237.074241,69.502504 L235.933598,69.502504 L235.933598,60.2443609 C236.10132,60.1506722 236.269698,60.094328 236.438075,60.094328 C236.79383,60.094328 237.055241,60.375394 237.055241,60.9919047 L237.055241,62.2832358 C237.691407,60.9545603 238.851705,60.094328 240.384792,60.094328 C240.889924,60.094328 241.301368,60.2070165 241.638123,60.375394" id="Fill-19" fill="#4EB1BB" mask="url(#mask-2)"></path>
          <path d="M243.60362,64.8265881 C244.425852,64.9759658 245.28674,65.0696545 246.072283,65.0696545 C247.830747,65.0696545 248.859357,64.3214555 248.859357,63.0497794 C248.859357,61.7964479 248.054814,61.0665936 246.690104,61.0665936 C244.837296,61.0665936 243.714998,62.4516133 243.60362,64.8265881 Z M249.513867,67.950417 L249.981655,68.7353052 C248.915701,69.4094705 247.737059,69.6898813 246.371694,69.6898813 C243.90303,69.6898813 242.443322,68.0251059 242.443322,65.2190322 C242.443322,62.0021698 244.070753,60.094328 246.839482,60.094328 C248.821357,60.094328 250,61.1982818 250,63.0307796 C250,64.8455879 248.559946,65.9298867 246.072283,65.9298867 C245.249395,65.9298867 244.407508,65.8178534 243.60362,65.6501311 C243.734653,67.5946622 244.725263,68.7353052 246.409038,68.7353052 C247.644025,68.7353052 248.67198,68.4738942 249.513867,67.950417 L249.513867,67.950417 Z" id="Fill-20" fill="#4EB1BB" mask="url(#mask-2)"></path>
          <path d="M52.7879911,19.9274443 L43.5540891,29.1620014 L28.934072,14.5419842 L37.7401509,5.73656051 C37.7709437,5.7044574 40.9098414,2.52035329 45.232623,2.48693985 C47.964663,2.49218117 50.6043246,3.71930607 53.0939533,6.2089348 C53.3665022,6.48410429 59.6908143,13.024621 52.7879911,19.9274443 Z M10.2349947,29.7247885 L6.13890032,25.6286941 C3.62306497,23.1128587 2.3821816,20.4731971 2.4503188,17.7837429 C2.55907627,13.5133745 5.94235068,10.4085454 5.97445379,10.3797181 C5.99148809,10.3639941 6.00852239,10.3482701 6.02490153,10.331891 C8.61149475,7.74595296 11.2904663,6.4972076 13.977955,6.61251672 C18.2122893,6.79923888 21.2162229,10.3273049 21.2437399,10.3607183 C21.2686362,10.3902007 21.2941876,10.419028 21.3217046,10.4458898 L25.417799,14.5419842 L10.2349947,29.7247885 Z M57.9683843,9.73175946 C56.9777742,6.59613759 54.9395544,4.53695256 54.8537278,4.45178105 C51.8746904,1.47208856 48.6191733,-0.0341368232 45.2142784,0.00058694597 C39.8615766,0.0412072042 36.1120647,3.84313234 35.9685835,3.9918549 L27.1762631,12.7841753 L23.1162028,8.72345982 C22.6778971,8.21439626 19.2081408,4.36660954 14.1142294,4.12943965 C10.6923002,3.96630345 7.38895601,5.45811519 4.28740274,8.55246164 C3.88382082,8.92263012 0.109412631,12.5194885 -0.0347237691,17.6933301 C-0.12972276,21.1008456 1.35553733,24.3622592 4.38043624,27.3871582 L25.7335888,48.7403107 L27.4920528,46.9818466 L11.9928037,31.4832526 L27.1762631,16.3004483 L41.7956251,30.9198103 L37.4918432,35.2235922 C37.0063656,35.7084146 37.0063656,36.4959235 37.4918432,36.9814011 C37.7349096,37.2244675 38.0526648,37.3456731 38.3710752,37.3456731 C38.6894856,37.3456731 39.0078961,37.2244675 39.2503073,36.9814011 L54.5464552,21.6859084 C59.067752,17.1646115 58.9026503,12.6898315 57.9683843,9.73175946 L57.9683843,9.73175946 Z" id="Fill-21" fill="#3F285C" mask="url(#mask-2)"></path>
        </g>
      </g>
    </g>
  </g>
</svg>
