<svg width="24" height="20" xmlns="http://www.w3.org/2000/svg" xmlns:xlink="http://www.w3.org/1999/xlink"><defs><path id="a" d="M0 0h24v19.985H0z"/></defs><g fill="none" fill-rule="evenodd"><path d="M14.442 15.692a1.604 1.604 0 11-2.269 2.267 1.604 1.604 0 012.269-2.267" fill="#4A266B"/><mask id="b" fill="#fff"><use xlink:href="#a"/></mask><path d="M11.858 5.957l6.02 6.018 3.8-3.799c2.842-2.843.237-5.537.125-5.65-1.021-1.022-2.13-1.54-3.227-1.531-1.77.008-3.081 1.325-3.094 1.338l-3.624 3.624zM5.596 2.684c-1.059 0-2.111.515-3.129 1.534-.034.031-1.427 1.31-1.471 3.068-.029 1.108.482 2.195 1.518 3.23l1.69 1.69 6.249-6.25-1.69-1.691c-.043-.048-1.28-1.5-3.023-1.578a3.313 3.313 0 00-.144-.003zm4.978 17.301L1.81 11.22C.571 9.981-.038 8.645.002 7.25c.06-2.19 1.711-3.691 1.78-3.754 1.254-1.254 2.599-1.87 4.014-1.802 2.184.103 3.64 1.828 3.7 1.901l1.659 1.659 3.62-3.62c.059-.06 1.594-1.617 3.784-1.634 1.415-.007 2.727.603 3.948 1.824.035.034.87.878 1.276 2.161.382 1.212.45 3.042-1.403 4.894l-6.276 6.279a.497.497 0 11-.704-.703l1.775-1.776-6.018-6.019-6.25 6.25 6.37 6.372-.703.703z" fill="#FFF" mask="url(#b)"/></g></svg>