<svg width="92" height="29" xmlns="http://www.w3.org/2000/svg" xmlns:xlink="http://www.w3.org/1999/xlink"><defs><path id="a" d="M0 0h46.592v28.11H0z"/><path id="c" d="M0 28.11h92V0H0z"/></defs><g fill="none" fill-rule="evenodd"><mask id="b" fill="#fff"><use xlink:href="#a"/></mask><path d="M19.301.073c2.997-.144 6.292-.03 9.37-.03 4.717 0 8.62.662 11.96 2.028 1.124.46 2.125.947 2.897 1.76 1.445 1.526 2.478 3.677 2.892 6.413.448 2.97-.045 5.988-.717 8.263-.73 2.473-1.844 4.313-3.638 5.67-.892.672-1.952 1.137-3.073 1.61-1.087.458-2.22.91-3.402 1.252-4.793 1.393-11.58 1.132-17.331.837-5.866-.302-11.813-.678-14.975-3.67C1.725 22.733.95 20.289.508 17.674c-.444-2.658-.66-5.833-.387-8.77.266-2.86 1.75-4.392 3.459-5.848.86-.73 1.751-1.36 2.955-1.73C7.7.967 9.052.85 10.621.759A87.314 87.314 0 0014.92.4 70.397 70.397 0 0119.3.073" fill="#E30E7E" mask="url(#b)"/><path d="M10.22 21.173c-1.244 0-2.185-.403-2.82-1.21-.61-.749-.913-1.823-.913-3.223v-.997H8.48v.997c0 .92.163 1.577.489 1.973.07.099.197.2.381.307.184.106.474.16.87.16.382 0 .686-.082.912-.245.226-.162.4-.36.52-.594.12-.233.197-.488.233-.764.035-.275.053-.519.053-.731 0-.368-.057-.679-.17-.934a2.036 2.036 0 00-.445-.646 2.747 2.747 0 00-.615-.446 10.39 10.39 0 00-.679-.329l-.382-.17a15.554 15.554 0 01-.86-.413 4.381 4.381 0 01-1.027-.753c-.85-.82-1.273-1.866-1.273-3.139 0-.665.088-1.273.265-1.825a4.038 4.038 0 01.764-1.41 3.48 3.48 0 012.704-1.24c.764 0 1.368.134 1.813.402.446.27.782.545 1.008.828.608.777.912 1.86.912 3.245v.997h-2.015v-.997c0-.608-.06-1.082-.18-1.421-.12-.34-.273-.584-.456-.732a1.175 1.175 0 00-.573-.265 3.703 3.703 0 00-.51-.042c-.41 0-.728.099-.954.296a1.99 1.99 0 00-.52.711c-.12.275-.194.551-.222.827a6.574 6.574 0 00-.043.626c0 .368.057.682.17.944.113.262.262.488.445.679.184.19.393.353.627.488.233.134.477.25.731.35l.34.148c.198.084.47.208.816.371s.69.407 1.029.732c.877.806 1.315 1.845 1.315 3.118 0 1.202-.297 2.199-.89 2.99-.694.892-1.641 1.337-2.843 1.337m8.611-13.618a3.57 3.57 0 00-.52.043 1.168 1.168 0 00-.562.265c-.184.148-.336.389-.455.72-.12.333-.181.804-.181 1.412v6.724c0 .622.06 1.099.18 1.431.12.333.272.573.456.721.184.149.371.238.562.266.191.028.364.042.52.042.142 0 .311-.014.51-.042a1.17 1.17 0 00.572-.266c.183-.148.336-.388.456-.72.12-.333.18-.81.18-1.432V9.995c0-.608-.06-1.079-.18-1.411-.12-.332-.273-.573-.456-.721a1.172 1.172 0 00-.573-.265 3.68 3.68 0 00-.509-.043m0 13.618c-.75 0-1.35-.134-1.803-.403-.453-.269-.792-.544-1.018-.827-.594-.764-.891-1.838-.891-3.224V9.995c0-1.386.297-2.46.891-3.224a3.009 3.009 0 011.008-.817 3.9 3.9 0 01.795-.297 4.042 4.042 0 011.018-.117c.764 0 1.369.135 1.814.403.445.27.78.545 1.008.828.593.763.89 1.838.89 3.224v6.724c0 1.386-.297 2.46-.89 3.224-.227.283-.563.558-1.008.827-.445.269-1.05.403-1.814.403m8.443-10.182l-.891 3.84h1.782l-.891-3.84zm-2.355 10.203h-2.058l3.606-15.633h1.591l3.648 15.633h-2.078l-.997-4.37h-2.715l-.997 4.37zm9.948-8.844h1.251c.552 0 .926-.065 1.125-.192.198-.127.324-.226.381-.297.311-.325.467-.968.467-1.93 0-.51-.042-.919-.127-1.23-.085-.311-.209-.552-.371-.721a1.205 1.205 0 00-.615-.34 3.918 3.918 0 00-.86-.085h-1.251v4.794zm0 8.823h-1.994V5.54h3.245c1.33 0 2.34.39 3.033 1.167.637.75.955 1.824.955 3.224 0 1.429-.318 2.51-.955 3.245-.678.792-1.69 1.188-3.033 1.188h-1.251v6.809z" fill="#FEFEFE"/><path fill="#12110E" d="M55.072 21.173h-1.994V5.54h1.76l3.16 11.009 3.14-11.009h1.76v15.633h-1.993v-7.488l-2.164 7.488h-1.505l-2.164-7.488zM66.06 7.555v4.815h4.475v1.994h-4.476V19.2h4.476v1.994h-6.47V5.561h6.47v1.994zM73.695 19.2h1.124c.255 0 .499-.024.733-.074a1.25 1.25 0 00.615-.329c.176-.17.32-.424.434-.763.114-.34.17-.8.17-1.38V10.08c0-.58-.056-1.039-.17-1.378-.113-.34-.258-.594-.434-.764a1.18 1.18 0 00-.615-.318 4.104 4.104 0 00-.733-.064h-1.124V19.2zm1.124 1.994h-3.118V5.561h3.118c1.344 0 2.355.418 3.034 1.252.622.75.933 1.838.933 3.266v6.576c0 1.428-.31 2.524-.933 3.288-.679.834-1.69 1.251-3.034 1.251z"/><mask id="d" fill="#fff"><use xlink:href="#c"/></mask><path fill="#12110E" mask="url(#d)" d="M79.973 21.194h1.994V5.561h-1.994zm7.594-10.203l-.89 3.84h1.781l-.89-3.84zm-2.354 10.203h-2.058l3.606-15.633h1.591L92 21.194h-2.078l-.998-4.37H86.21l-.996 4.37z"/></g></svg>