<?xml version="1.0" encoding="UTF-8"?>
<svg xmlns="http://www.w3.org/2000/svg" xmlns:xlink="http://www.w3.org/1999/xlink" width="59.6756757px" height="48px" viewBox="0 0 59.6756757 48" version="1.1">
  <title>4AD040CD-8756-42A4-B78F-7704D90F12A1</title>
  <defs>
    <polygon id="path-1" points="0 0 59.6756757 0 59.6756757 48 0 48"></polygon>
  </defs>
  <g id="OneTouch-Desktop-V2" stroke="none" stroke-width="1" fill="none" fill-rule="evenodd">
    <g id="OneTouch-Desktop-Megamenu" transform="translate(-193.000000, -432.000000)">
      <g id="Carers-Icon-Copy-2" transform="translate(193.000000, 432.000000)">
        <g id="Group-3">
          <mask id="mask-2" fill="white">
            <use xlink:href="#path-1"></use>
          </mask>
          <g id="Clip-2"></g>
          <path d="M16.6065978,7.3041982 C15.2427174,7.3041982 13.9526934,7.83022829 12.9777897,8.80485881 C11.8108595,9.96999088 11.2877105,11.5849524 11.538822,13.2367852 C11.8650209,15.3679445 13.6498824,17.1525139 15.7830996,17.4806682 C17.4424054,17.736309 19.0610901,17.212737 20.2304822,16.0451468 C21.3998742,14.8763276 21.9242542,13.257679 21.6682189,11.602159 C21.3395582,9.47099972 19.5510039,7.68888843 17.4165557,7.36565032 C17.1445181,7.32509192 16.8737116,7.3041982 16.6065978,7.3041982 M16.6115216,19.3881418 C16.2447017,19.3881418 15.8741891,19.3598738 15.5024455,19.3033379 C12.5457301,18.8473632 10.1650941,16.4679374 9.71457045,13.5157778 C9.37236941,11.2776919 10.086314,9.08630949 11.6717634,7.50207401 C13.2572128,5.91783852 15.451977,5.20622305 17.6935169,5.54298063 C20.6526942,5.99158106 23.0370231,8.36731977 23.4937014,11.3219374 C23.8395953,13.5637105 23.1256507,15.760009 21.5352775,17.3479316 C20.2095562,18.6728392 18.45793,19.3881418 16.6115216,19.3881418 M44.0146852,26.9356904 C43.9088244,26.9356904 43.8017327,26.9172547 43.6983339,26.8791544 C43.5284643,26.8152442 43.3844444,26.7083175 43.2798146,26.5718939 L31.1045971,14.4142077 C29.2901931,12.6025994 28.3694507,10.5365794 28.3694507,8.2751416 C28.3694507,3.40321804 31.9884113,0 37.1682026,0 C40.0079788,0 42.6717308,1.43429233 44.0220708,3.40075996 C45.3724109,1.43429233 48.0361628,0 50.87717,0 C56.0569613,0 59.6759219,3.40321804 59.6759219,8.2751416 C59.6759219,10.5365794 58.7551795,12.6025994 56.9407754,14.4142077 L55.052515,16.3941948 C54.7004665,16.7629075 54.1170014,16.776427 53.7464888,16.4249209 C53.378438,16.0734148 53.3636668,15.4896197 53.7157153,15.120907 L55.6199779,13.1261714 C57.09095,11.6574659 57.8295134,10.030214 57.8295134,8.2751416 C57.8295134,4.42823929 55.0352819,1.8435634 50.87717,1.8435634 C47.5905629,1.8435634 44.9452751,4.21684402 44.9452751,6.18208261 C44.9452751,6.69090611 44.5316796,7.10386431 44.0220708,7.10386431 C43.5124621,7.10386431 43.0988666,6.69090611 43.0988666,6.18208261 C43.0988666,4.21684402 40.4535787,1.8435634 37.1682026,1.8435634 C33.0100907,1.8435634 30.2158592,4.42823929 30.2158592,8.2751416 C30.2158592,10.030214 30.9544226,11.6574659 32.4093925,13.1114229 L44.0159161,24.6988334 L47.2815973,21.3755031 C47.6373386,21.0129357 48.2232656,21.0067905 48.5863926,21.3632127 C48.9507505,21.719635 48.9569052,22.3034301 48.598702,22.6672266 L44.7421701,26.5915585 C44.6400022,26.7169208 44.5070608,26.8164733 44.3495006,26.8742382 C44.3051868,26.8914448 44.259642,26.9037353 44.2140973,26.9135676 C44.1488575,26.9270871 44.0823868,26.9356904 44.0146852,26.9356904 M7.77461061,48.0002458 C7.26500187,48.0002458 6.85140638,47.5872876 6.85140638,47.0784641 L6.85140638,32.4602354 C6.85140638,31.9514119 7.26500187,31.5384537 7.77461061,31.5384537 C8.28421935,31.5384537 8.69781485,31.9514119 8.69781485,32.4602354 L8.69781485,47.0784641 C8.69781485,47.5872876 8.28421935,48.0002458 7.77461061,48.0002458 M25.4336613,48.0002458 C24.9240525,48.0002458 24.510457,47.5872876 24.510457,47.0784641 L24.510457,32.4602354 C24.510457,31.9514119 24.9240525,31.5384537 25.4336613,31.5384537 C25.94327,31.5384537 26.3568655,31.9514119 26.3568655,32.4602354 L26.3568655,42.8935752 L40.0104407,42.8935752 C41.5503453,42.8935752 42.8563716,41.7407335 42.9216114,40.3248768 C42.9597705,39.4952733 42.6963495,38.7615351 42.1596601,38.2010918 C41.5614238,37.5742802 40.6517599,37.2153999 39.6657778,37.2153999 L32.2850676,37.2153999 C31.7754589,37.2153999 31.3618634,36.8024417 31.3618634,36.2936182 L31.3618634,36.2899311 L31.3618634,27.8181427 C31.3618634,25.7656421 29.6890173,24.0966027 27.6345802,24.0966027 L25.4336613,24.0966027 C25.397964,24.0966027 25.3622668,24.0941446 25.3278005,24.0904575 L21.3801792,24.0904575 L17.3796275,30.2860596 C17.0398883,30.8133187 16.1683835,30.8133187 15.8286444,30.2860596 L11.8280927,24.0904575 L5.57369171,24.0966027 C3.51802361,24.0966027 1.84640847,25.7656421 1.84640847,27.8181427 L1.84640847,31.9944283 L1.84640847,32.0165511 L1.84640847,32.0399029 L1.84640847,47.0784641 C1.84640847,47.5872876 1.43281298,48.0002458 0.923204237,48.0002458 C0.413595498,48.0002458 0,47.5872876 0,47.0784641 L0,32.0399029 L0,32.0165511 L0,31.9944283 L0,27.8181427 C0,24.7492242 2.50003707,22.2530393 5.57369171,22.2530393 L12.3303158,22.2468941 L12.3315467,22.2468941 C12.6454362,22.2468941 12.9371687,22.4054406 13.1070383,22.6684556 L16.6041359,28.0860739 L20.1012336,22.6684556 C20.2723341,22.4054406 20.5640666,22.2468941 20.8779561,22.2468941 L25.4336613,22.2468941 C25.4693585,22.2468941 25.5050557,22.2481232 25.539522,22.2530393 L27.6345802,22.2530393 C30.7082348,22.2530393 33.2082719,24.7492242 33.2082719,27.8181427 L33.2082719,35.3718365 L39.6657778,35.3718365 C41.153983,35.3718365 42.5498678,35.938425 43.4952289,36.927804 C44.3753503,37.8471276 44.8271049,39.0835441 44.765558,40.4096808 C44.6572353,42.7952518 42.5227871,44.7371386 40.0104407,44.7371386 L26.3568655,44.7371386 L26.3568655,47.0784641 C26.3568655,47.5872876 25.94327,48.0002458 25.4336613,48.0002458" id="Fill-1" fill="#ED1E79" mask="url(#mask-2)"></path>
        </g>
        <path d="M50.9189189,20.7567568 C52.173374,20.7567568 53.1891892,19.7399512 53.1891892,18.4871244 C53.1891892,17.2330217 52.173374,16.2162162 50.9189189,16.2162162 C49.6644638,16.2162162 48.6486486,17.2330217 48.6486486,18.4871244 C48.6486486,19.7399512 49.6644638,20.7567568 50.9189189,20.7567568" id="Fill-4" fill="#4A266B"></path>
      </g>
    </g>
  </g>
</svg>
