<?xml version="1.0" encoding="UTF-8"?>
<svg xmlns="http://www.w3.org/2000/svg" xmlns:xlink="http://www.w3.org/1999/xlink" width="63.0857143px" height="48px" viewBox="0 0 63.0857143 48" version="1.1">
  <title>AAA73836-C75A-4A1D-97CA-76BB8ADB4B2A</title>
  <defs>
    <polygon id="path-1" points="0 0 61.0285714 0 61.0285714 48 0 48"></polygon>
  </defs>
  <g id="OneTouch-Desktop-V2" stroke="none" stroke-width="1" fill="none" fill-rule="evenodd">
    <g id="OneTouch-Desktop-Megamenu" transform="translate(-189, -192)">
      <g id="CMS-Icon-Copy-2" transform="translate(189, 192)">
        <g id="Group-3" transform="translate(2.0571, 0)">
          <mask id="mask-2" fill="white">
            <use xlink:href="#path-1"></use>
          </mask>
          <g id="Clip-2"></g>
          <path d="M1.84483302,35.1776595 L1.84483302,37.0457686 C1.84483302,37.7682727 2.43438975,38.3558345 3.15934707,38.3558345 L30.8783864,38.3558345 L30.8783864,35.1776595 L1.84483302,35.1776595 Z M21.5315145,46.1614096 L31.3917803,46.1614096 C31.0659726,45.6103948 30.8783864,44.966607 30.8783864,44.2820554 L30.8783864,40.1944248 L23.101315,40.1944248 L23.0886212,40.5402148 L22.5216313,43.9320485 C22.380589,44.774033 22.0322146,45.533084 21.5315145,46.1614096 L21.5315145,46.1614096 Z M35.6611301,46.1614096 L44.7724614,46.1614096 C44.7033506,45.930883 44.6666797,45.6877055 44.6666797,45.4346885 L44.6666797,23.0806345 C44.6666797,21.6665505 45.8218159,20.5153231 47.2407013,20.5153231 L55.5579645,20.5153231 L55.5579645,11.4109272 C55.5579645,10.374963 54.7131213,9.53157295 53.6736397,9.53157295 L34.6089547,9.53157295 C33.5694731,9.53157295 32.7232194,10.374963 32.7232194,11.4109272 L32.7232194,44.2820554 C32.7232194,45.3180196 33.5694731,46.1614096 34.6089547,46.1614096 L35.6611301,46.1614096 Z M47.2407013,22.3539134 C46.8387308,22.3539134 46.5115127,22.6800242 46.5115127,23.0806345 L46.5115127,45.4346885 C46.5115127,45.8367045 46.8387308,46.1614096 47.2407013,46.1614096 L58.4281749,46.1614096 C58.8456601,46.1614096 59.1841615,45.8240536 59.1841615,45.4079812 L59.1841615,23.0806345 C59.1841615,22.6800242 58.8569434,22.3539134 58.4549729,22.3539134 L47.2407013,22.3539134 Z M58.4281749,48 L16.5851617,48 C16.0759991,48 15.6627452,47.5895502 15.6627452,47.0807048 C15.6627452,46.5732651 16.0759991,46.1614096 16.5851617,46.1614096 L17.703627,46.1614096 C19.1958543,46.1614096 20.4567723,45.0973325 20.7021859,43.6298338 L21.256482,40.1944248 L3.15934707,40.1944248 C1.41747491,40.1944248 0,38.7817465 0,37.0457686 L0,24.7547638 C0,24.2473241 0.41325388,23.8354687 0.922416511,23.8354687 C1.43298956,23.8354687 1.84483302,24.2473241 1.84483302,24.7547638 L1.84483302,33.3390692 L30.8783864,33.3390692 L30.8783864,11.4109272 C30.8783864,9.36148929 32.5511478,7.69298258 34.6089547,7.69298258 L51.4635071,7.69298258 L51.4635071,3.14851572 C51.4635071,2.42601156 50.8739504,1.8384498 50.1489931,1.8384498 L3.15934707,1.8384498 C2.43438975,1.8384498 1.84483302,2.42601156 1.84483302,3.14851572 L1.84483302,10.6532818 C1.84483302,11.1621271 1.43298956,11.5725769 0.922416511,11.5725769 C0.41325388,11.5725769 0,11.1621271 0,10.6532818 L0,3.14851572 C0,1.41253781 1.41747491,-0.000140565013 3.15934707,-0.000140565013 L50.1489931,-0.000140565013 C51.8908652,-0.000140565013 53.3083401,1.41253781 53.3083401,3.14851572 L53.3083401,7.69298258 L53.6736397,7.69298258 C55.7300361,7.69298258 57.4027975,9.36148929 57.4027975,11.4109272 L57.4027975,20.5153231 L58.4549729,20.5153231 C59.8752687,20.5153231 61.0289946,21.6665505 61.0289946,23.0806345 L61.0289946,45.4079812 C61.0289946,46.8375273 59.8625749,48 58.4281749,48 L58.4281749,48 Z" id="Fill-1" fill="#50B7CC" mask="url(#mask-2)"></path>
        </g>
        <path d="M2.74285714,19.8857143 C4.25802903,19.8857143 5.48571429,18.658029 5.48571429,17.1428571 C5.48571429,15.6276853 4.25802903,14.4 2.74285714,14.4 C1.22768526,14.4 0,15.6276853 0,17.1428571 C0,18.658029 1.22768526,19.8857143 2.74285714,19.8857143" id="Fill-4" fill="#4A266B"></path>
      </g>
    </g>
  </g>
</svg>
