<?xml version="1.0" encoding="UTF-8"?>
<svg xmlns="http://www.w3.org/2000/svg" xmlns:xlink="http://www.w3.org/1999/xlink" width="51.0913755px" height="48px" viewBox="0 0 51.0913755 48" version="1.1">
  <title>E4E808A6-D29F-4E88-A73C-BB33D128B9BE@3x</title>
  <g id="OneTouch-Desktop-V2" stroke="none" stroke-width="1" fill="none" fill-rule="evenodd">
    <g id="OneTouch-Desktop-Megamenu" transform="translate(-618.000000, -432.000000)">
      <g id="Group-9" transform="translate(618.000000, 432.000000)">
        <path d="M12.4828911,24.0001246 L27.0917493,24.0001246 M12.4828911,34.4343112 L22.9170777,34.4343112" id="Stroke-1" stroke="#4A266B" stroke-width="1.5" stroke-linecap="round" stroke-linejoin="round"></path>
        <g id="Group-8">
          <path d="M51.0913755,37.5653149 C51.0913755,31.803022 46.4194818,27.1311283 40.6571888,27.1311283 C34.8936497,27.1311283 30.2217561,31.803022 30.2217561,37.5653149 C30.2217561,43.328854 34.8936497,47.9995015 40.6571888,47.9995015 C46.4194818,47.9995015 51.0913755,43.328854 51.0913755,37.5653149 Z" id="Stroke-2" stroke="#4A266B" stroke-width="1.5" stroke-linecap="round" stroke-linejoin="round"></path>
          <path d="M36.4827665,38.191391 L38.8679371,40.696194 L44.8308635,34.4354328 M29.402025,48 L4.76149333,48 C3.83932707,48 3.09162469,47.2522976 3.09162469,46.3301314 L3.09162469,38.8431383 M12.4827665,13.5658134 L31.2650501,13.5658134 M3.09162469,24.7290098 L3.09162469,1.66986863 C3.09162469,0.747702373 3.83932707,0 4.76149333,0 L41.0736591,0 C41.9958253,0 42.7435277,0.747702373 42.7435277,1.66986863 L42.7435277,21.9126642" id="Stroke-4" stroke="#4A266B" stroke-width="1.5" stroke-linecap="round" stroke-linejoin="round"></path>
          <path d="M2.78519134,34.0623293 C4.32296589,34.0623293 5.57038268,32.8149125 5.57038268,31.277138 C5.57038268,29.7381172 4.32296589,28.4919466 2.78519134,28.4919466 C1.24741679,28.4919466 0,29.7381172 0,31.277138 C0,32.8149125 1.24741679,34.0623293 2.78519134,34.0623293" id="Fill-6" fill="#4FB8CC"></path>
        </g>
      </g>
    </g>
  </g>
</svg>
