<?xml version="1.0" encoding="UTF-8"?>
<svg xmlns="http://www.w3.org/2000/svg" xmlns:xlink="http://www.w3.org/1999/xlink" width="55.9619029px" height="48px" viewBox="0 0 55.9619029 48" version="1.1">
  <title>ACDCE36A-069F-4F53-B504-544895752300@3x</title>
  <defs>
    <polygon id="path-1" points="0 0 55.9619029 0 55.9619029 48 0 48"></polygon>
  </defs>
  <g id="OneTouch-Desktop-V2" stroke="none" stroke-width="1" fill="none" fill-rule="evenodd">
    <g id="OneTouch-Desktop-Megamenu" transform="translate(-1042.000000, -193.000000)">
      <g id="Group-6" transform="translate(1042.000000, 193.000000)">
        <g id="Group-3">
          <mask id="mask-2" fill="white">
            <use xlink:href="#path-1"></use>
          </mask>
          <g id="Clip-2"></g>
          <path d="M16.531355,13.8329941 C18.0183468,14.9073337 19.3693919,14.4730262 20.0828112,13.7584039 C20.7986365,13.0449847 21.2353501,11.6927365 20.1622136,10.2033385 C18.6740187,9.13381122 17.3265828,9.56932177 16.6119605,10.282741 C15.8997443,10.9961602 15.4630307,12.3447992 16.531355,13.8329941 M18.3263321,16.2740187 C17.3722994,16.2740187 16.3400672,15.9612211 15.3367086,15.1936638 C15.272946,15.1443381 15.2151988,15.0865908 15.167076,15.0228282 C13.4322522,12.7394055 14.0398015,10.3031931 15.3367086,9.00628603 C16.6360219,7.71058198 19.068625,7.1042358 21.3532508,8.8390596 C21.4182165,8.88838538 21.4747606,8.94613264 21.5240864,9.0110983 C23.2673317,11.2969272 22.6609855,13.7355456 21.3592661,15.036062 C20.629004,15.763918 19.5426337,16.2740187 18.3263321,16.2740187 M34.4053336,16.9537521 C35.8947316,18.0317008 37.2445737,17.5949872 37.960399,16.881568 C38.6750213,16.1657426 39.112938,14.8146975 38.0385984,13.3252995 C36.5504035,12.2545692 35.1993584,12.6912828 34.4883453,13.404702 C33.7749261,14.1169181 33.3382124,15.4655572 34.4053336,16.9537521 M36.2027169,19.3959797 C35.2486841,19.3959797 34.2140458,19.081979 33.2106873,18.3132187 C33.1481277,18.265096 33.0903805,18.2073487 33.0410547,18.1435861 C31.307434,15.8601634 31.9149832,13.4251541 33.2118903,12.128247 C34.5087974,10.8301368 36.948619,10.2273999 39.2284325,11.9610206 C39.2933982,12.0103464 39.3511454,12.0680936 39.3992681,12.1318562 C41.1437165,14.4176851 40.5373703,16.8587097 39.2344478,18.158023 C38.5053887,18.885879 37.4178154,19.3959797 36.2027169,19.3959797 M26.7189333,22.5949371 C27.7547747,23.3324177 28.6871522,23.0340568 29.1828162,22.5420021 C29.676074,22.0499474 29.9732317,21.1163667 29.2381573,20.0757131 C28.1987067,19.3490601 27.2687353,19.648624 26.7802897,20.1394757 C26.2894381,20.6303273 25.9910772,21.5590957 26.7189333,22.5949371 M27.9641085,24.8386586 C27.1833175,24.8386586 26.3387638,24.5836082 25.5218808,23.9544037 C25.4581182,23.906281 25.401574,23.8485338 25.3522482,23.7847712 C23.9386435,21.9236252 24.4391198,19.9289388 25.5026317,18.8642238 C26.5685498,17.7983057 28.5608301,17.2978295 30.4267883,18.7102311 C30.491754,18.7583538 30.5482982,18.8161011 30.5976239,18.8798637 C32.0292747,20.748228 31.5287984,22.7501328 30.456865,23.8184571 C29.8565342,24.4187879 28.9626548,24.8386586 27.9641085,24.8386586 M33.1517369,35.6157401 C32.6536669,35.6157401 32.2494361,35.2127124 32.2494361,34.7134393 L32.2494361,28.8569051 L23.7136699,28.8569051 L23.7136699,34.7134393 C23.7136699,35.2127124 23.3094391,35.6157401 22.811369,35.6157401 C22.3132989,35.6157401 21.9090681,35.2127124 21.9090681,34.7134393 L21.9090681,27.9546042 C21.9090681,27.4565342 22.3132989,27.0523034 22.811369,27.0523034 L33.1517369,27.0523034 C33.649807,27.0523034 34.0540378,27.4565342 34.0540378,27.9546042 L34.0540378,34.7134393 C34.0540378,35.2127124 33.649807,35.6157401 33.1517369,35.6157401 M27.9677177,48.0001203 C27.8462078,48.0001203 27.725901,47.976059 27.6116096,47.9255301 C27.4552108,47.8569552 27.3228733,47.7486791 27.227831,47.6151386 L9.80379969,30.1911073 C9.79176901,30.1790766 9.7809414,30.168249 9.76891072,30.1562184 L4.79542834,25.182736 C1.61331395,22.0006216 0,18.3866058 0,14.4405434 C0,5.80371948 6.18015941,-0.00108276104 15.3812221,-0.00108276104 C20.8672114,-0.00108276104 25.9718282,3.03906963 27.9821545,6.99114743 C29.9912778,3.03906963 35.0983007,-0.00108276104 40.5830869,-0.00108276104 C49.7829465,-0.00108276104 55.9619029,5.80371948 55.9619029,14.4405434 C55.9619029,18.3878089 54.349792,22.0018247 51.1664745,25.182736 L44.2283824,32.1208281 L44.2079302,32.1412803 L41.3795178,34.9696927 C41.0270189,35.3221916 40.4567648,35.3221916 40.1042659,34.9696927 C39.751767,34.6171938 39.751767,34.0457366 40.1042659,33.6932378 L42.677628,31.1198757 L42.677628,23.8076295 L36.2243721,23.8052233 C35.7263021,23.8052233 35.3220713,23.4009925 35.3220713,22.9029225 C35.3220713,22.4048524 35.7263021,22.0006216 36.2243721,22.0006216 L43.5799288,22.0030277 C44.0779989,22.0030277 44.4822297,22.4060554 44.4822297,22.9053286 L44.4822297,29.3140709 L49.8912226,23.906281 C52.7220412,21.0766655 54.1573011,17.892145 54.1573011,14.4405434 C54.1573011,6.88287132 48.7025916,1.80351897 40.5830869,1.80351897 C33.9950875,1.80351897 28.8844554,6.52435711 28.8844554,10.5859141 C28.8844554,11.0839842 28.4802246,11.4882149 27.9821545,11.4882149 C27.4840844,11.4882149 27.0798536,11.0839842 27.0798536,10.5859141 C27.0798536,6.52435711 21.9704246,1.80351897 15.3812221,1.80351897 C7.26051431,1.80351897 1.80460173,6.88287132 1.80460173,14.4405434 C1.80460173,17.8909419 3.23986165,21.0754624 6.0718833,23.906281 L9.52228182,27.3566795 L9.52228182,19.7821645 C9.52228182,19.2840944 9.92651261,18.8798637 10.4245827,18.8798637 L20.7204371,18.8774575 C21.2185072,18.8774575 21.622738,19.2816883 21.622738,19.7797584 C21.622738,20.2778285 21.2185072,20.6820593 20.7204371,20.6820593 L11.3268836,20.6844654 L11.3268836,29.1612813 L27.9809514,45.8165522 L30.7010878,43.0952128 C31.0535866,42.7427139 31.6250439,42.7427139 31.9775427,43.0952128 C32.3300416,43.4477117 32.3300416,44.0191689 31.9775427,44.3716678 L28.7039952,47.6452153 C28.6101559,47.7679282 28.487443,47.8653767 28.3406687,47.9255301 C28.257657,47.9604191 28.1722392,47.9820743 28.0856183,47.9929019 C28.0459171,47.9965111 28.0062159,48.0001203 27.9677177,48.0001203" id="Fill-1" fill="#4A266B" mask="url(#mask-2)"></path>
        </g>
        <path d="M35.9076044,41.3917891 C38.0225976,41.3917891 39.5685398,38.9483583 37.8746203,36.7323074 C35.6597724,35.0456063 33.2187478,36.5879392 33.2187478,38.7029325 C33.2187478,40.1875182 34.4230187,41.3917891 35.9076044,41.3917891" id="Fill-4" fill="#4FB8CC"></path>
      </g>
    </g>
  </g>
</svg>
