<?xml version="1.0" encoding="UTF-8"?>
<svg xmlns="http://www.w3.org/2000/svg" xmlns:xlink="http://www.w3.org/1999/xlink" width="52.4568844px" height="48px" viewBox="0 0 52.4568844 48" version="1.1">
  <title>951E0EA5-EB6A-4E69-A141-840A25F38D21@3x</title>
  <g id="OneTouch-Desktop-V2" stroke="none" stroke-width="1" fill="none" fill-rule="evenodd">
    <g id="OneTouch-Desktop-Megamenu" transform="translate(-615.000000, -193.000000)">
      <g id="Group-25" transform="translate(615.000000, 193.000000)">
        <path d="M1.71105457,39.6448968 L19.6109697,39.6448968 L19.0794459,43.7364999 C18.8883234,45.0110263 17.8128357,46.0039582 16.5134295,46.097823 C16.080294,46.1430591 15.8473282,46.6881538 15.8744699,47.1891433 C15.8993497,47.6822166 16.1820752,48 16.5937235,48 L35.8642918,48 C36.2906418,48 36.5869381,47.6607294 36.6005089,47.1540854 C36.6140797,46.6530958 36.3664122,46.1204411 35.9344077,46.0966921 C34.6440486,46.0039582 33.5696918,45.0110263 33.3785694,43.7432853 L32.8470455,39.6448968 L50.7469607,39.6448968 C51.6901329,39.6448968 52.4568844,38.881538 52.4568844,37.9417586 L52.4568844,1.70200735 C52.4568844,0.763358779 51.6901329,0 50.7469607,0 L1.71105457,0 C0.767882386,0 -2.51110664e-16,0.763358779 -2.51110664e-16,1.70200735 L-2.51110664e-16,37.9417586 C-2.51110664e-16,38.881538 0.767882386,39.6448968 1.71105457,39.6448968 L1.71105457,39.6448968 Z M32.7531807,43.8303647 C32.9895392,45.406842 34.2629347,46.5908962 35.8608991,46.7220809 C35.931015,46.7989822 36.011309,47.0941476 35.9445858,47.2931863 C35.9174442,47.3712185 35.8936952,47.3712185 35.8642918,47.3712185 L16.5937235,47.3712185 C16.5733673,47.3712185 16.5552728,47.3712185 16.530393,47.3011026 C16.4602771,47.1020639 16.5383093,46.801244 16.6084252,46.72095 C18.1973424,46.5875035 19.4673452,45.4045802 19.7048346,43.8235793 L20.2476675,39.6448968 L32.2103478,39.6448968 L32.7531807,43.8303647 Z M0.632174159,1.70200735 C0.632174159,1.11054566 1.11620017,0.628781453 1.71105457,0.628781453 L50.7469607,0.628781453 C51.3418151,0.628781453 51.8258411,1.11054566 51.8258411,1.70200735 L51.8258411,37.9417586 C51.8258411,38.5343511 51.3418151,39.0161154 50.7469607,39.0161154 L1.71105457,39.0161154 C1.11620017,39.0161154 0.632174159,38.5343511 0.632174159,37.9417586 L0.632174159,1.70200735 Z" id="Fill-1" fill="#ED1F78"></path>
        <path d="M1.71105457,39.6448968 L19.6109697,39.6448968 L19.0794459,43.7364999 C18.8883234,45.0110263 17.8128357,46.0039582 16.5134295,46.097823 C16.080294,46.1430591 15.8473282,46.6881538 15.8744699,47.1891433 C15.8993497,47.6822166 16.1820752,48 16.5937235,48 L35.8642918,48 C36.2906418,48 36.5869381,47.6607294 36.6005089,47.1540854 C36.6140797,46.6530958 36.3664122,46.1204411 35.9344077,46.0966921 C34.6440486,46.0039582 33.5696918,45.0110263 33.3785694,43.7432853 L32.8470455,39.6448968 L50.7469607,39.6448968 C51.6901329,39.6448968 52.4568844,38.881538 52.4568844,37.9417586 L52.4568844,1.70200735 C52.4568844,0.763358779 51.6901329,0 50.7469607,0 L1.71105457,0 C0.767882386,0 -2.51110664e-16,0.763358779 -2.51110664e-16,1.70200735 L-2.51110664e-16,37.9417586 C-2.51110664e-16,38.881538 0.767882386,39.6448968 1.71105457,39.6448968 L1.71105457,39.6448968 Z M32.7531807,43.8303647 C32.9895392,45.406842 34.2629347,46.5908962 35.8608991,46.7220809 C35.931015,46.7989822 36.011309,47.0941476 35.9445858,47.2931863 C35.9174442,47.3712185 35.8936952,47.3712185 35.8642918,47.3712185 L16.5937235,47.3712185 C16.5733673,47.3712185 16.5552728,47.3712185 16.530393,47.3011026 C16.4602771,47.1020639 16.5383093,46.801244 16.6084252,46.72095 C18.1973424,46.5875035 19.4673452,45.4045802 19.7048346,43.8235793 L20.2476675,39.6448968 L32.2103478,39.6448968 L32.7531807,43.8303647 Z M0.632174159,1.70200735 C0.632174159,1.11054566 1.11620017,0.628781453 1.71105457,0.628781453 L50.7469607,0.628781453 C51.3418151,0.628781453 51.8258411,1.11054566 51.8258411,1.70200735 L51.8258411,37.9417586 C51.8258411,38.5343511 51.3418151,39.0161154 50.7469607,39.0161154 L1.71105457,39.0161154 C1.11620017,39.0161154 0.632174159,38.5343511 0.632174159,37.9417586 L0.632174159,1.70200735 Z" id="Stroke-3" stroke="#F7931E"></path>
        <path d="M1.71105457,39.6448968 L19.6109697,39.6448968 L19.0794459,43.7364999 C18.8883234,45.0110263 17.8128357,46.0039582 16.5134295,46.097823 C16.080294,46.1430591 15.8473282,46.6881538 15.8744699,47.1891433 C15.8993497,47.6822166 16.1820752,48 16.5937235,48 L35.8642918,48 C36.2906418,48 36.5869381,47.6607294 36.6005089,47.1540854 C36.6140797,46.6530958 36.3664122,46.1204411 35.9344077,46.0966921 C34.6440486,46.0039582 33.5696918,45.0110263 33.3785694,43.7432853 L32.8470455,39.6448968 L50.7469607,39.6448968 C51.6901329,39.6448968 52.4568844,38.881538 52.4568844,37.9417586 L52.4568844,1.70200735 C52.4568844,0.763358779 51.6901329,0 50.7469607,0 L1.71105457,0 C0.767882386,0 -2.51110664e-16,0.763358779 -2.51110664e-16,1.70200735 L-2.51110664e-16,37.9417586 C-2.51110664e-16,38.881538 0.767882386,39.6448968 1.71105457,39.6448968 Z M32.7531807,43.8303647 C32.9895392,45.406842 34.2629347,46.5908962 35.8608991,46.7220809 C35.931015,46.7989822 36.011309,47.0941476 35.9445858,47.2931863 C35.9174442,47.3712185 35.8936952,47.3712185 35.8642918,47.3712185 L16.5937235,47.3712185 C16.5733673,47.3712185 16.5552728,47.3712185 16.530393,47.3011026 C16.4602771,47.1020639 16.5383093,46.801244 16.6084252,46.72095 C18.1973424,46.5875035 19.4673452,45.4045802 19.7048346,43.8235793 L20.2476675,39.6448968 L32.2103478,39.6448968 L32.7531807,43.8303647 Z M0.632174159,1.70200735 C0.632174159,1.11054566 1.11620017,0.628781453 1.71105457,0.628781453 L50.7469607,0.628781453 C51.3418151,0.628781453 51.8258411,1.11054566 51.8258411,1.70200735 L51.8258411,37.9417586 C51.8258411,38.5343511 51.3418151,39.0161154 50.7469607,39.0161154 L1.71105457,39.0161154 C1.11620017,39.0161154 0.632174159,38.5343511 0.632174159,37.9417586 L0.632174159,1.70200735 Z" id="Stroke-5" stroke="#F7931E" stroke-width="0.427" stroke-linecap="round" stroke-linejoin="round"></path>
        <path d="M26.4448968,40.9890868 C27.3824145,40.9890868 28.1423805,40.2291207 28.1423805,39.292734 C28.1423805,38.3552163 27.3824145,37.5952502 26.4448968,37.5952502 C25.5073791,37.5952502 24.7474131,38.3552163 24.7474131,39.292734 C24.7474131,40.2291207 25.5073791,40.9890868 26.4448968,40.9890868" id="Fill-7" fill="#4A266B"></path>
        <path d="M4.00836867,2.94385072 C3.27554425,2.94385072 2.68182075,3.53757422 2.68182075,4.27039864 L2.68182075,30.4869664 C2.68182075,31.2197908 3.27554425,31.8146452 4.00836867,31.8146452 L48.4494204,31.8146452 C49.1822448,31.8146452 49.7759683,31.2197908 49.7759683,30.4869664 L49.7759683,4.27039864 C49.7759683,3.53757422 49.1822448,2.94385072 48.4494204,2.94385072 L4.00836867,2.94385072 Z" id="Stroke-9" stroke="#F7931E" stroke-width="0.587"></path>
        <path d="M23.299067,39.645123 C23.4732259,39.645123 23.6134577,39.5037602 23.6134577,39.3307323 C23.6134577,39.1565734 23.4732259,39.0163415 23.299067,39.0163415 C23.1249081,39.0163415 22.9846763,39.1565734 22.9846763,39.3307323 C22.9846763,39.5037602 23.1249081,39.645123 23.299067,39.645123" id="Fill-11" fill="#FFFFFF"></path>
        <path d="M29.5339553,39.645123 C29.7081142,39.645123 29.8483461,39.5037602 29.8483461,39.3307323 C29.8483461,39.1565734 29.7081142,39.0163415 29.5339553,39.0163415 C29.3597964,39.0163415 29.2195646,39.1565734 29.2195646,39.3307323 C29.2195646,39.5037602 29.3597964,39.645123 29.5339553,39.645123" id="Fill-13" fill="#FFFFFF"></path>
        <polygon id="Fill-15" fill="#F7931E" points="12.7543116 14.9069833 11.7421544 16.639525 9.86259542 17.1167656 11.1167656 18.6638394 10.9674866 20.6915465 12.7543116 19.9146169 14.5411366 20.6915465 14.3918575 18.6638394 15.6460277 17.1167656 13.7664688 16.639525"></polygon>
        <polygon id="Fill-17" fill="#F7931E" points="19.4915465 14.9069833 18.4793893 16.639525 16.5998304 17.1167656 17.8540006 18.6638394 17.7047215 20.6915465 19.4915465 19.9146169 21.2783715 20.6915465 21.1290925 18.6638394 22.3832627 17.1167656 20.5037037 16.639525"></polygon>
        <polygon id="Fill-19" fill="#F7931E" points="26.2287815 14.9069833 25.2166243 16.639525 23.3370653 17.1167656 24.5912355 18.6638394 24.4419565 20.6915465 26.2287815 19.9146169 28.0156064 20.6915465 27.8663274 18.6638394 29.1204976 17.1167656 27.2409386 16.639525"></polygon>
        <polygon id="Fill-21" fill="#F7931E" points="32.9661295 14.9069833 31.9539723 16.639525 30.0744133 17.1167656 31.3285835 18.6638394 31.1793045 20.6915465 32.9661295 19.9146169 34.7529545 20.6915465 34.6036754 18.6638394 35.8578456 17.1167656 33.9782867 16.639525"></polygon>
        <polygon id="Fill-23" fill="#F7931E" points="39.7033644 14.9069833 38.6912072 16.639525 36.8116483 17.1167656 38.0658185 18.6638394 37.9165394 20.6915465 39.7033644 19.9146169 41.4901894 20.6915465 41.3409104 18.6638394 42.5950806 17.1167656 40.7155216 16.639525"></polygon>
      </g>
    </g>
  </g>
</svg>
