<?xml version="1.0" encoding="UTF-8"?>
<svg xmlns="http://www.w3.org/2000/svg" xmlns:xlink="http://www.w3.org/1999/xlink" width="100px" height="83px" viewBox="0 0 100 83" version="1.1">
  <title>09A19B48-5A49-4318-AD98-B2062423DBD8</title>
  <defs>
    <polygon id="path-1" points="0 0 100 0 100 83 0 83"></polygon>
  </defs>
  <g id="OneTouch-Desktop-V2" stroke="none" stroke-width="1" fill="none" fill-rule="evenodd">
    <g id="OneTouch-Desktop" transform="translate(-1058, -409)">
      <g id="Group-7" transform="translate(792, 169)">
        <g id="Group-6" transform="translate(266, 240)">
          <path d="M60.0969421,64.9030579 C62.6343526,67.4404684 62.6343526,71.5595316 60.0969421,74.0969421 C57.5595316,76.6343526 53.4404684,76.6343526 50.9030579,74.0969421 C48.3656474,71.5595316 48.3656474,67.4404684 50.9030579,64.9030579 C53.4404684,62.3656474 57.5595316,62.3656474 60.0969421,64.9030579" id="Fill-1" fill="#4A266B"></path>
          <g id="Group-5">
            <mask id="mask-2" fill="white">
              <use xlink:href="#path-1"></use>
            </mask>
            <g id="Clip-4"></g>
            <path d="M49.4102563,24.7411508 L74.489616,49.7378115 L90.3228084,33.9524982 C102.167288,22.147076 91.3178142,10.9609404 90.8485538,10.4932274 C86.6121755,6.27081855 82.110752,4.12713403 77.4746333,4.12713403 L77.4007683,4.12713403 C70.0229525,4.16611011 64.5612832,9.63142297 64.5091432,9.68772175 L49.4102563,24.7411508 Z M23.3185109,11.1471595 C18.9039874,11.1471595 14.5198789,13.290844 10.2791556,17.5219143 C10.1357705,17.6475039 4.33519096,22.9525817 4.14835581,30.2584318 C4.03104072,34.8576095 6.16009239,39.3745043 10.4746808,43.6748654 L17.5179313,50.6948908 L43.5531917,24.7368201 L36.5099412,17.712464 C36.3317961,17.5175836 31.182967,11.4806215 23.9181213,11.1644822 C23.7182512,11.1558208 23.518381,11.1471595 23.3185109,11.1471595 L23.3185109,11.1471595 Z M44.0572121,83.0017323 L7.54180348,46.5937409 C2.37993943,41.448898 -0.157542563,35.9013023 0.00756756621,30.1068581 C0.259577764,21.012439 7.13771816,14.7805965 7.42883339,14.5207559 C12.6515275,9.31095296 18.2696169,6.77317694 24.1484065,7.03734817 C33.2511886,7.46175439 39.3168134,14.6290228 39.5688236,14.9365008 L46.477379,21.8179447 L61.5588858,6.78616897 C61.806551,6.5306591 68.2023961,0.0649601369 77.3312482,0 C83.0970677,0.021653379 88.6977771,2.50313061 93.7814311,7.57435196 C93.9248162,7.71726427 97.400819,11.2164503 99.0953703,16.5518429 C100.685642,21.5797575 100.968067,29.1844242 93.2556857,36.8757044 L67.0987652,62.9507033 C66.2862496,63.756209 64.9784035,63.7605397 64.1658879,62.9507033 C63.3577173,62.1451976 63.3577173,60.8373336 64.1658879,60.0274972 L71.5610837,52.656687 L46.486069,27.6556956 L20.4464636,53.618097 L46.9900894,80.0785261 L44.0572121,83.0017323 Z" id="Fill-3" fill="#FFFFFF" mask="url(#mask-2)"></path>
          </g>
        </g>
      </g>
    </g>
  </g>
</svg>
